<svg xmlns="http://www.w3.org/2000/svg" viewBox="0 0 160 80" fill="none">
  <!-- Person with books — gentle nudge -->
  <circle cx="60" cy="20" r="6" stroke="#d97757" stroke-width="2" fill="none"/>
  <line x1="60" y1="26" x2="60" y2="48" stroke="#d97757" stroke-width="2" stroke-linecap="round"/>
  <line x1="60" y1="48" x2="54" y2="64" stroke="#d97757" stroke-width="2" stroke-linecap="round"/>
  <line x1="60" y1="48" x2="66" y2="64" stroke="#d97757" stroke-width="2" stroke-linecap="round"/>
  <path d="M60 34 L72 30" stroke="#d97757" stroke-width="2" fill="none" stroke-linecap="round"/>
  <path d="M60 34 L52 26" stroke="#d97757" stroke-width="2" fill="none" stroke-linecap="round"/>
  <!-- Books -->
  <rect x="72" y="24" width="14" height="10" rx="1" stroke="#d97757" stroke-width="1.5" fill="none"/>
  <line x1="74" y1="28" x2="84" y2="28" stroke="#d97757" stroke-width="1" opacity="0.4"/>
  <line x1="74" y1="31" x2="82" y2="31" stroke="#d97757" stroke-width="1" opacity="0.4"/>
  <rect x="74" y="20" width="14" height="10" rx="1" stroke="#d97757" stroke-width="1.5" fill="none" opacity="0.4"/>
  <!-- Lightbulb -->
  <circle cx="108" cy="24" r="5" stroke="#d97757" stroke-width="1.5" fill="none" opacity="0.5"/>
  <line x1="108" y1="29" x2="108" y2="32" stroke="#d97757" stroke-width="1.5" opacity="0.5"/>
  <line x1="108" y1="16" x2="108" y2="14" stroke="#d97757" stroke-width="1" opacity="0.3"/>
  <line x1="114" y1="20" x2="116" y2="18" stroke="#d97757" stroke-width="1" opacity="0.3"/>
  <line x1="102" y1="20" x2="100" y2="18" stroke="#d97757" stroke-width="1" opacity="0.3"/>
</svg>
